# xmcd CD database file
#
# Track frame offsets:
#	150
#	16367
#	31802
#	46192
#	68467
#	101195
#	126905
#	138185
#	157550
#	184075
#	199820
#
# Disc length: 3081 seconds
#
# Revision: 0
# Processed by: cddbd v1.5PL3 Copyright (c) Steve Scherf et al.
# Submitted via: cdripper 1.0.7
#
DISCID=850c070b
DTITLE=Little Cooper and the Drifters - Baby, I'm Back
DYEAR=1996
DGENRE=Blues
TTITLE0=Baby I'm Back
TTITLE1=Evening Train
TTITLE2=East St. Louis
TTITLE3=I'm Getting Old
TTITLE4=Sweet Love, Street Love
TTITLE5=Let's Ride
TTITLE6=Moving Slow
TTITLE7=If She's a Dog
TTITLE8=Pinto Beans
TTITLE9=Hoot Owl Blues
TTITLE10=Stingy Woman
EXTD=YEAR: 1996
EXTT0=
EXTT1=
EXTT2=
EXTT3=
EXTT4=
EXTT5=
EXTT6=
EXTT7=
EXTT8=
EXTT9=
EXTT10=
PLAYORDER=
